# AST/ASF file generated using VICON BodyLanguage
# -----------------------------------------------
:version 1.10
:name VICON
:units
  mass 1.0
  length 0.45
  angle deg
:documentation
   .ast/.asf automatically generated from VICON data using
   VICON BodyBuilder and BodyLanguage model FoxedUp or BRILLIANT.MOD
:root
   order TX TY TZ RX RY RZ
   axis XYZ
   position 0 0 0  
   orientation 0 0 0 
:bonedata
  begin
     id 1 
     name lhipjoint
     direction 0.576517 -0.752066 0.319413 
     length 2.45433 
     axis 0 0 0  XYZ
  end
  begin
     id 2 
     name lfemur
     direction 0.34202 -0.939693 0  
     length 7.54459  
     axis 0 0 20  XYZ
    dof rx ry rz
    limits (-160.0 20.0)
           (-70.0 70.0)
           (-60.0 70.0)
  end
  begin
     id 3 
     name ltibia
     direction 0.34202 -0.939693 0   
     length 7.73986   
     axis 0 0 20   XYZ
    dof rx
    limits (-10.0 170.0)
  end
  begin
     id 4 
     name lfoot
     direction 0.090693 -0.249177 0.964202   
     length 2.28437   
     axis -90 7.62852e-016 20   XYZ
    dof rx rz
    limits (-45.0 90.0)
           (-70.0 20.0)
  end
  begin
     id 5 
     name ltoes
     direction 1.5356e-011 -4.21928e-011 1   
     length 1.14243   
     axis -90 7.62852e-016 20   XYZ
    dof rx
    limits (-90.0 20.0)
  end
  begin
     id 6 
     name rhipjoint
     direction -0.573937 -0.753736 0.320122   
     length 2.44889  
     axis 0 0 0  XYZ 
  end
  begin
     id 7 
     name rfemur
     direction -0.34202 -0.939693 0   
     length 7.50166   
     axis 0 0 -20   XYZ
    dof rx ry rz
    limits (-160.0 20.0)
           (-70.0 70.0)
           (-70.0 60.0)
  end
  begin
     id 8 
     name rtibia
     direction -0.34202 -0.939693 0   
     length 7.54266   
     axis 0 0 -20   XYZ
    dof rx
    limits (-10.0 170.0)
 end
 begin
     id 9 
     name rfoot
     direction -0.114017 -0.31326 0.942798   
     length 2.34212  
     axis -90 -7.62852e-016 -20   XYZ
    dof rx rz
    limits (-45.0 90.0)
           (-20.0 70.0)
  end
  begin
     id 10 
     name rtoes
     direction -1.53557e-011 -4.21867e-011 1   
     length 1.16246   
     axis -90 -7.62852e-016 -20   XYZ
    dof rx
    limits (-90.0 20.0)
  end
  begin
     id 11 
     name lowerback
     direction -0.0228371 0.999155 -0.034167   
     length 2.0537   
     axis 0 0 0   XYZ
    dof rx ry rz
    limits (-20.0 45.0)
           (-30.0 30.0)
           (-30.0 30.0)
  end
  begin
     id 12 
     name upperback
     direction 0.0198981 0.999794 0.00389455   
     length 2.05302   
     axis 0 0 0   XYZ
    dof rx ry rz
    limits (-20.0 45.0)
           (-30.0 30.0)
           (-30.0 30.0)
  end
  begin
     id 13 
     name thorax
     direction 0.0304566 0.99935 0.0192987   
     length 2.05315   
     axis 0 0 0   XYZ
    dof rx ry rz
    limits (-20.0 45.0)
           (-30.0 30.0)
           (-30.0 30.0)
  end
  begin
     id 14 
     name lowerneck
     direction -0.0196762 0.99417 0.106017   
     length 1.82056   
     axis 0 0 0   XYZ
    dof rx ry rz
    limits (-20.0 45.0)
           (-30.0 30.0)
           (-30.0 30.0)
  end
  begin
     id 15 
     name upperneck
     direction 0.00517787 0.9802 -0.197944   
     length 1.83835   
     axis 0 0 0   XYZ
    dof rx ry rz
    limits (-20.0 45.0)
           (-30.0 30.0)
           (-30.0 30.0)
  end
  begin
     id 16
     name head
     direction 0.00211419 0.996945 -0.078081  
     length 1.85629  
     axis 0 0 0   XYZ
    dof rx ry rz
    limits (-20.0 45.0)
           (-30.0 30.0)
           (-30.0 30.0)
  end
  begin
     id 17 
     name lclavicle
     direction 0.930001 0.365811 -0.0357824  
     length 3.81961  
     axis 0 0 0   XYZ
    dof ry rz
    limits (-20.0 10.0)
           (0.0 20.0)
  end
  begin
     id 18 
     name lhumerus
     direction 1 -4.48968e-011 -3.06644e-027   
     length 5.14507   
     axis 180 -30 -90   XYZ
    dof rx ry rz
    limits (-60.0 90.0)
           (-90.0 90.0)
           (-90.0 90.0)
  end
  begin
     id 19
     name lradius
     direction 1 -4.48965e-011 9.06925e-028   
     length 3.50646   
     axis 180 -30 -90   XYZ
    dof rx
    limits (-10.0 170.0)
  end
  begin
     id 20
     name lwrist
     direction 1 -4.48957e-011 1.03922e-027   
     length 1.75323   
     axis -2.56395e-016 90 90   XYZ
    dof ry
    limits (-180.0 0.0)
 end
  begin
     id 21 
     name lhand
     direction 1 -4.48967e-011 2.08017e-027   
     length 0.629969   
     axis -1.32723e-015 90 90   XYZ
    dof rx rz
    limits (-90.0 90.0)
           (-45.0 45.0)
  end
  begin
     id 22 
     name lfingers
     direction 1 -4.49089e-011 4.20095e-027   
     length 0.507897   
     axis -2.6545e-015 90 90   XYZ
    dof rx
    limits (0.0 90.0)
  end
  begin
     id 23
     name lthumb
     direction 0.707107 -6.35001e-011 0.707107   
     length 0.729241   
     axis -90 45 5.05613e-014   XYZ
    dof rx rz
    limits (-45.0 45.0)
           (-45.0 45.0)
  end
  begin
     id 24 
     name rclavicle
     direction -0.881882 0.464123 -0.0829113   
     length 3.47515  
     axis 0 0 0   XYZ 
    dof ry rz
    limits (-10.0 20.0)
           (-20.0 0.0)
  end
  begin
     id 25 
     name rhumerus
     direction -1 -4.48961e-011 -1.55672e-027  
     length 5.232   
     axis 180 30 90   XYZ
    dof rx ry rz
    limits (-90.0 60.0)
           (-90.0 90.0)
           (-90.0 90.0)
  end
  begin
     id 26 
     name rradius
     direction -1 -4.48963e-011 6.18178e-029   
     length 3.65641   
     axis 180 30 90   XYZ
    dof rx
    limits (-10.0 170.0)
  end
  begin
     id 27 
     name rwrist
     direction -1 -4.48982e-011 1.04136e-027   
     length 1.8282   
     axis -2.56395e-016 -90 -90   XYZ
    dof ry
    limits (-180.0 0.0)
  end
  begin
     id 28
     name rhand
     direction -1 -4.48929e-011 2.07378e-027   
     length 0.656807   
     axis -1.32723e-015 -90 -90   XYZ
    dof rx rz
    limits (-90.0 90.0)
           (-45.0 45.0)
  end
  begin
     id 29
     name rfingers
     direction -1 -4.489e-011 4.13816e-027   
     length 0.529535   
     axis -2.6545e-015 -90 -90   XYZ
    dof rx
    limits (0.0 90.0)
  end
  begin
     id 30
     name rthumb
     direction -0.707107 -6.34843e-011 0.707107   
     length 0.760309   
     axis -90 -45 -5.05613e-014   XYZ
    dof rx rz
    limits (-45.0 45.0)
           (-45.0 45.0)
  end
:hierarchy
  begin
    root lhipjoint rhipjoint lowerback
    lhipjoint lfemur
    lfemur ltibia
    ltibia lfoot
    lfoot ltoes
    rhipjoint rfemur
    rfemur rtibia
    rtibia rfoot
    rfoot rtoes
    lowerback upperback
    upperback thorax
    thorax lowerneck lclavicle rclavicle
    lowerneck upperneck
    upperneck head
    lclavicle lhumerus
    lhumerus lradius
    lradius lwrist
    lwrist lhand lthumb
    lhand lfingers
    rclavicle rhumerus
    rhumerus rradius
    rradius rwrist
    rwrist rhand rthumb
    rhand rfingers
  end

#!OML:ASF H:\ManfredETheater\Project 1\Capture day 1\Session 1\subject.ASF
:FULLY-SPECIFIED
:DEGREES
16
root 17.7921 14.4381 36.6053 -147.895 -28.242 -186.701
lowerback 24.18 -3.18532 -1.26787
upperback 1.03797 -4.66707 0.890705
thorax -12.194 -2.14598 3.33298
lowerneck -19.2825 -0.739406 -1.20858
upperneck -7.63312 -2.02964 2.60838
head 0.80841 -1.49921 0.903738
rclavicle 2.68359e-014 2.21893e-014
rhumerus -51.9655 -4.70304 -81.881
rradius 59.753
rwrist -12.842
rhand -28.768 -8.38003
rfingers 7.12502
rthumb -2.1276 -38.3492
lclavicle 2.68359e-014 2.21893e-014
lhumerus -34.6251 -11.6437 96.7888
lradius 80.9725
lwrist 7.35882
lhand -29.9592 -17.2471
lfingers 7.12502
lthumb -3.27805 12.7074
rfemur -61.3018 -11.4516 13.0344
rtibia 99.4702
rfoot -20.9826 -17.1013
rtoes -32.2937
lfemur -54.9501 0.73162 -26.5429
ltibia 79.0264
lfoot -38.6874 -6.55779
ltoes -6.62492
17
root 17.6866 14.4067 36.1751 -148.379 -29.1813 -186.954
lowerback 24.3085 -3.57366 -1.24601
upperback 1.15195 -5.13723 1.23847
thorax -12.0735 -2.36048 3.87156
lowerneck -19.5256 -0.703526 -1.31889
upperneck -7.36427 -1.95493 2.74561
head 0.941479 -1.44857 0.970036
rclavicle 3.598e-014 -3.40419e-015
rhumerus -54.7299 -5.15662 -80.5149
rradius 58.4768
rwrist -12.6902
rhand -29.1149 -7.49011
rfingers 7.12502
rthumb -2.46264 -37.4556
lclavicle 3.598e-014 -3.40419e-015
lhumerus -33.6687 -13.9216 98.1065
lradius 84.012
lwrist 7.93184
lhand -29.319 -17.4693
lfingers 7.12502
lthumb -2.65978 12.4938
rfemur -64.5982 -11.9442 12.5409
rtibia 99.4353
rfoot -21.7234 -17.0052
rtoes -32.0427
lfemur -52.3083 0.695764 -25.7113
ltibia 78.7395
lfoot -39.098 -7.67158
ltoes -8.16702
18
root 17.5736 14.3848 35.7329 -148.94 -30.0823 -187.118
lowerback 24.3741 -3.97059 -1.15172
upperback 1.26592 -5.59878 1.59638
thorax -11.9183 -2.57791 4.37148
lowerneck -19.7805 -0.639911 -1.42845
upperneck -7.07879 -1.84311 2.8126
head 1.0807 -1.38047 1.01673
rclavicle -6.79347e-014 -2.08724e-014
rhumerus -57.6924 -5.27647 -79.1909
rradius 57.8154
rwrist -11.9726
rhand -29.4045 -6.25463
rfingers 7.12502
rthumb -2.74239 -36.2167
lclavicle -6.79347e-014 -2.08724e-014
lhumerus -33.0214 -16.4447 99.295
lradius 87.4901
lwrist 8.28642
lhand -28.6834 -17.6215
lfingers 7.12502
lthumb -2.04596 12.3484
rfemur -67.6013 -12.3272 12.0558
rtibia 98.7813
rfoot -22.2 -16.9517
rtoes -31.7053
lfemur -49.468 0.680008 -24.7729
ltibia 78.2045
lfoot -39.4124 -8.82998
ltoes -9.64399
19
root 17.4525 14.3717 35.2788 -149.59 -30.9147 -187.203
lowerback 24.3913 -4.36984 -1.00694
upperback 1.38281 -6.05234 1.9549
thorax -11.7337 -2.79789 4.83457
lowerneck -20.0245 -0.542282 -1.53398
upperneck -6.78671 -1.68526 2.80356
head 1.21858 -1.29103 1.04211
rclavicle 4.83544e-014 -3.28989e-014
rhumerus -60.8024 -5.1132 -77.9355
rradius 57.7209
rwrist -10.8662
rhand -29.6877 -4.776
rfingers 7.12502
rthumb -3.01582 -34.7344
lclavicle 4.83544e-014 -3.28989e-014
lhumerus -32.6364 -19.0923 100.316
lradius 91.2639
lwrist 8.23382
lhand -28.1302 -17.7021
lfingers 7.12502
lthumb -1.51166 12.2723
rfemur -70.2624 -12.5861 11.5652
rtibia 97.5066
rfoot -22.4342 -16.9176
rtoes -31.2921
lfemur -46.4073 0.685177 -23.7605
ltibia 77.3747
lfoot -39.5749 -10.0287
ltoes -11.0386
